<svg xmlns="http://www.w3.org/2000/svg" width="192" height="192" viewBox="0 0 192 192">
  <defs>
    <clipPath id="sc">
      <path d="M96,178 Q22,144 22,102 L22,28 L170,28 L170,102 Q170,144 96,178Z"/>
    </clipPath>
  </defs>
  <!-- 背景 -->
  <rect width="192" height="192" rx="40" fill="#f5f5f5"/>
  <!-- シールド外枠 -->
  <path d="M96,184 Q16,148 16,102 L16,22 L176,22 L176,102 Q176,148 96,184Z" fill="#1e1e1e"/>
  <!-- シールド白地 -->
  <path d="M96,178 Q22,144 22,102 L22,28 L170,28 L170,102 Q170,144 96,178Z" fill="#ffffff"/>
  <g clip-path="url(#sc)">
    <!-- 山（背景） -->
    <polygon points="22,128 70,62 118,128" fill="#4a4a4a"/>
    <polygon points="74,128 122,58 170,128" fill="#525252"/>
    <!-- 山（前景） -->
    <polygon points="44,128 96,50 148,128" fill="#2e2e2e"/>
    <!-- 雪 -->
    <polygon points="96,50 86,68 106,68" fill="#f0f0f0"/>
    <polygon points="70,62 61,78 79,78" fill="#e8e8e8"/>
    <polygon points="122,58 113,74 131,74" fill="#e8e8e8"/>
    <!-- 緑の地面 -->
    <rect x="22" y="126" width="148" height="54" fill="#2a6b2a"/>
    <ellipse cx="96" cy="126" rx="74" ry="9" fill="#358035"/>
    <!-- 家：屋根 -->
    <polygon points="96,90 67,110 125,110" fill="#ffffff"/>
    <!-- 煙突 -->
    <rect x="107" y="97" width="8" height="15" fill="#ffffff"/>
    <!-- 家：壁 -->
    <rect x="69" y="110" width="54" height="30" fill="#ffffff"/>
    <!-- 窓 -->
    <rect x="79" y="115" width="34" height="21" fill="#1e1e1e"/>
    <line x1="96" y1="115" x2="96" y2="136" stroke="#fff" stroke-width="2.5"/>
    <line x1="79" y1="125.5" x2="113" y2="125.5" stroke="#fff" stroke-width="2.5"/>
  </g>
</svg>
