<svg xmlns="http://www.w3.org/2000/svg" width="512" height="512" viewBox="0 0 512 512">
  <defs>
    <clipPath id="sc">
      <path d="M256,474 Q58,384 58,272 L58,74 L454,74 L454,272 Q454,384 256,474Z"/>
    </clipPath>
  </defs>
  <!-- 背景 -->
  <rect width="512" height="512" rx="108" fill="#f5f5f5"/>
  <!-- シールド外枠 -->
  <path d="M256,490 Q42,396 42,272 L42,58 L470,58 L470,272 Q470,396 256,490Z" fill="#1e1e1e"/>
  <!-- シールド白地 -->
  <path d="M256,474 Q58,384 58,272 L58,74 L454,74 L454,272 Q454,384 256,474Z" fill="#ffffff"/>
  <g clip-path="url(#sc)">
    <!-- 山（背景） -->
    <polygon points="58,340 186,166 314,340" fill="#4a4a4a"/>
    <polygon points="198,340 326,154 454,340" fill="#525252"/>
    <!-- 山（前景） -->
    <polygon points="118,340 256,134 394,340" fill="#2e2e2e"/>
    <!-- 雪 -->
    <polygon points="256,134 228,182 284,182" fill="#f0f0f0"/>
    <polygon points="186,166 162,208 210,208" fill="#e8e8e8"/>
    <polygon points="326,154 302,196 350,196" fill="#e8e8e8"/>
    <!-- 緑の地面 -->
    <rect x="58" y="336" width="396" height="140" fill="#2a6b2a"/>
    <ellipse cx="256" cy="336" rx="198" ry="24" fill="#358035"/>
    <!-- 家：屋根 -->
    <polygon points="256,240 178,294 334,294" fill="#ffffff"/>
    <!-- 煙突 -->
    <rect x="286" y="258" width="22" height="40" fill="#ffffff"/>
    <!-- 家：壁 -->
    <rect x="184" y="294" width="144" height="80" fill="#ffffff"/>
    <!-- 窓 -->
    <rect x="210" y="308" width="92" height="56" fill="#1e1e1e"/>
    <line x1="256" y1="308" x2="256" y2="364" stroke="#fff" stroke-width="7"/>
    <line x1="210" y1="336" x2="302" y2="336" stroke="#fff" stroke-width="7"/>
  </g>
</svg>
